<svg id="Camada_1" data-name="Camada 1" xmlns="http://www.w3.org/2000/svg" viewBox="0 0 415.25 319.15"><defs><style>.cls-1{fill:#fff;}</style></defs><path class="cls-1" d="M207.3,319.14q-84.77,0-169.53,0c-9.36,0-18.19-1.83-25.62-8.14-8.52-7.23-12-16.77-12-27.49q-.19-98.51,0-197C.2,64.75,14.29,51.28,36.35,51.11c20.51-.16,41,.11,61.51-.2a13.83,13.83,0,0,0,8.65-3.59c11.93-11.64,23.68-23.48,35.13-35.59C149.15,3.79,158.3.2,168.86.13q39.51-.27,79,0A35.66,35.66,0,0,1,274.3,11.25c11.84,12.21,24,24.1,35.9,36.24A11.17,11.17,0,0,0,319,51.14q29.76-.22,59.51,0c8.63.06,16.85,1.81,23.9,7.37,9.14,7.19,12.73,17,12.75,28.12q.15,98.25,0,196.5c-.06,22.19-14.6,36-37.3,36Q292.57,319.2,207.3,319.14Zm.42-236a93.42,93.42,0,1,0,93.15,93.22A93,93,0,0,0,207.72,83.11Zm182.45,7.21c.07-8.67-6.05-15.15-14.33-15.18A14.62,14.62,0,0,0,361.2,89.69c-.1,8.45,6.35,15.25,14.48,15.27A14.58,14.58,0,0,0,390.17,90.32Z"/><path class="cls-1" d="M207.78,245.31c-38.5.09-68.29-30.13-68.92-68.69-.52-32,24.08-69,68.6-69.19,43.68-.16,69.31,36.13,68.91,68.89C275.89,215,246.28,245.22,207.78,245.31Z"/></svg>